<svg xmlns="http://www.w3.org/2000/svg" version="1.1" xmlns:xlink="http://www.w3.org/1999/xlink" width="200" height="200"><svg xmlns="http://www.w3.org/2000/svg" version="1.1" xmlns:xlink="http://www.w3.org/1999/xlink" viewBox="0 0 200 200"><rect width="200" height="200" fill="url('#gradient')"></rect><defs><linearGradient id="SvgjsLinearGradient1020" gradientTransform="rotate(45 0.5 0.5)"><stop offset="0%" stop-color="#3c3d3e"></stop><stop offset="100%" stop-color="#b5b4b5"></stop></linearGradient></defs><g><g fill="#c52727" transform="matrix(2.6414445399828033,0,0,2.6414445399828033,8.396969455844456,118.78004589843422)" stroke="#f71412" stroke-width="0.2"><path d="M11.65-12.46L4.92-2.64L11.72-2.64L11.72 0L0.64 0L0.64-1.81L7.42-11.57L0.61-11.57L0.61-14.22L11.65-14.22L11.65-12.46ZM22.09-8.57L22.09-6.03L16.70-6.03L16.70-2.64L23.07-2.64L23.07 0L13.27 0L13.27-14.22L23.09-14.22L23.09-11.57L16.70-11.57L16.70-8.57L22.09-8.57ZM36.34-14.22L36.34 0L32.93 0L27.89-8.85L27.89 0L24.46 0L24.46-14.22L27.89-14.22L32.92-5.37L32.92-14.22L36.34-14.22ZM42.16-14.22L42.16 0L38.74 0L38.74-14.22L42.16-14.22ZM55.42-14.22L55.42-11.57L51.15-11.57L51.15 0L47.72 0L47.72-11.57L43.54-11.57L43.54-14.22L55.42-14.22ZM68.75-14.22L68.75 0L65.34 0L65.34-5.94L60.29-5.94L60.29 0L56.87 0L56.87-14.22L60.29-14.22L60.29-8.57L65.34-8.57L65.34-14.22L68.75-14.22Z"></path></g></g></svg><style>@media (prefers-color-scheme: light) { :root { filter: contrast(1) brightness(1); } }
@media (prefers-color-scheme: dark) { :root { filter: none; } }
</style></svg>