<svg xmlns="http://www.w3.org/2000/svg" version="1.1" xmlns:xlink="http://www.w3.org/1999/xlink" viewBox="0 0 200 200"><rect width="200" height="200" fill="url('#gradient')"></rect><defs><linearGradient id="gradient" gradientTransform="rotate(45 0.5 0.5)"><stop offset="0%" stop-color="#3c3d3e"></stop><stop offset="100%" stop-color="#b5b4b5"></stop></linearGradient></defs><g><g fill="#c52727" transform="matrix(0.7193537056550755,0,0,0.7193537056550755,9.565078862851493,105.11538307332641)" stroke="#f71412" stroke-width="0.1"><path d="M11.65-12.46L4.92-2.64L11.72-2.64L11.72 0L0.64 0L0.64-1.81L7.42-11.57L0.61-11.57L0.61-14.22L11.65-14.22L11.65-12.46ZM22.09-8.57L22.09-6.03L16.70-6.03L16.70-2.64L23.07-2.64L23.07 0L13.27 0L13.27-14.22L23.09-14.22L23.09-11.57L16.70-11.57L16.70-8.57L22.09-8.57ZM36.34-14.22L36.34 0L32.93 0L27.89-8.85L27.89 0L24.46 0L24.46-14.22L27.89-14.22L32.92-5.37L32.92-14.22L36.34-14.22ZM42.16-14.22L42.16 0L38.74 0L38.74-14.22L42.16-14.22ZM55.42-14.22L55.42-11.57L51.15-11.57L51.15 0L47.72 0L47.72-11.57L43.54-11.57L43.54-14.22L55.42-14.22ZM68.75-14.22L68.75 0L65.34 0L65.34-5.94L60.29-5.94L60.29 0L56.87 0L56.87-14.22L60.29-14.22L60.29-8.57L65.34-8.57L65.34-14.22L68.75-14.22ZM84.93-14.22L86.91-5.30L88.54-14.22L91.94-14.22L88.93 0L85.37 0L83.47-8.11L81.60 0L78.06 0L75.03-14.22L78.44-14.22L80.07-5.30L82.02-14.22L84.93-14.22ZM102.10-8.57L102.10-6.03L96.71-6.03L96.71-2.64L103.08-2.64L103.08 0L93.28 0L93.28-14.22L103.10-14.22L103.10-11.57L96.71-11.57L96.71-8.57L102.10-8.57ZM107.90-14.22L107.90-2.64L113.87-2.64L113.87 0L104.47 0L104.47-14.22L107.90-14.22ZM118.74-14.22L118.74-2.64L124.71-2.64L124.71 0L115.31 0L115.31-14.22L118.74-14.22ZM138.03-14.22L138.03 0L134.62 0L129.58-8.85L129.58 0L126.15 0L126.15-14.22L129.58-14.22L134.61-5.37L134.61-14.22L138.03-14.22ZM149.01-8.57L149.01-6.03L143.62-6.03L143.62-2.64L149.99-2.64L149.99 0L140.20 0L140.20-14.22L150.01-14.22L150.01-11.57L143.62-11.57L143.62-8.57L149.01-8.57ZM158.72-3.78L158.72-3.78Q158.72-4.53 158.19-4.95Q157.66-5.37 156.32-5.82Q154.98-6.27 154.13-6.69L154.13-6.69Q151.37-8.05 151.37-10.42L151.37-10.42Q151.37-11.60 152.06-12.50Q152.74-13.41 154.00-13.91Q155.26-14.41 156.84-14.41L156.84-14.41Q158.37-14.41 159.58-13.87Q160.80-13.32 161.47-12.31Q162.15-11.30 162.15-10L162.15-10L158.73-10Q158.73-10.87 158.20-11.35Q157.67-11.83 156.76-11.83L156.76-11.83Q155.84-11.83 155.31-11.42Q154.78-11.02 154.78-10.39L154.78-10.39Q154.78-9.84 155.36-9.40Q155.95-8.96 157.42-8.48Q158.90-8.01 159.84-7.46L159.84-7.46Q162.15-6.13 162.15-3.80L162.15-3.80Q162.15-1.93 160.74-0.87Q159.34 0.20 156.88 0.20L156.88 0.20Q155.16 0.20 153.75-0.42Q152.35-1.04 151.65-2.12Q150.94-3.20 150.94-4.61L150.94-4.61L154.38-4.61Q154.38-3.47 154.97-2.92Q155.56-2.38 156.88-2.38L156.88-2.38Q157.73-2.38 158.23-2.75Q158.72-3.12 158.72-3.78ZM171.24-3.78L171.24-3.78Q171.24-4.53 170.71-4.95Q170.18-5.37 168.84-5.82Q167.50-6.27 166.65-6.69L166.65-6.69Q163.89-8.05 163.89-10.42L163.89-10.42Q163.89-11.60 164.58-12.50Q165.26-13.41 166.52-13.91Q167.78-14.41 169.36-14.41L169.36-14.41Q170.89-14.41 172.10-13.87Q173.32-13.32 173.99-12.31Q174.67-11.30 174.67-10L174.67-10L171.25-10Q171.25-10.87 170.72-11.35Q170.19-11.83 169.28-11.83L169.28-11.83Q168.36-11.83 167.83-11.42Q167.29-11.02 167.29-10.39L167.29-10.39Q167.29-9.84 167.88-9.40Q168.47-8.96 169.94-8.48Q171.42-8.01 172.36-7.46L172.36-7.46Q174.67-6.13 174.67-3.80L174.67-3.80Q174.67-1.93 173.26-0.87Q171.86 0.20 169.40 0.20L169.40 0.20Q167.68 0.20 166.27-0.42Q164.87-1.04 164.17-2.12Q163.46-3.20 163.46-4.61L163.46-4.61L166.89-4.61Q166.89-3.47 167.49-2.92Q168.08-2.38 169.40-2.38L169.40-2.38Q170.25-2.38 170.75-2.75Q171.24-3.12 171.24-3.78ZM188.74-3.78L188.74-3.78Q188.74-4.53 188.21-4.95Q187.68-5.37 186.34-5.82Q185-6.27 184.15-6.69L184.15-6.69Q181.39-8.05 181.39-10.42L181.39-10.42Q181.39-11.60 182.08-12.50Q182.76-13.41 184.02-13.91Q185.28-14.41 186.86-14.41L186.86-14.41Q188.39-14.41 189.60-13.87Q190.82-13.32 191.49-12.31Q192.17-11.30 192.17-10L192.17-10L188.75-10Q188.75-10.87 188.22-11.35Q187.69-11.83 186.78-11.83L186.78-11.83Q185.86-11.83 185.33-11.42Q184.79-11.02 184.79-10.39L184.79-10.39Q184.79-9.84 185.38-9.40Q185.97-8.96 187.44-8.48Q188.92-8.01 189.86-7.46L189.86-7.46Q192.17-6.13 192.17-3.80L192.17-3.80Q192.17-1.93 190.76-0.87Q189.36 0.20 186.90 0.20L186.90 0.20Q185.18 0.20 183.77-0.42Q182.37-1.04 181.67-2.12Q180.96-3.20 180.96-4.61L180.96-4.61L184.39-4.61Q184.39-3.47 184.99-2.92Q185.58-2.38 186.90-2.38L186.90-2.38Q187.75-2.38 188.25-2.75Q188.74-3.12 188.74-3.78ZM205.09-14.22L205.09-11.57L200.82-11.57L200.82 0L197.39 0L197.39-11.57L193.20-11.57L193.20-14.22L205.09-14.22ZM214.26-14.22L217.69-14.22L217.69-4.91Q217.69-3.33 217.01-2.17Q216.34-1.02 215.08-0.41Q213.82 0.20 212.10 0.20L212.10 0.20Q209.50 0.20 208.01-1.15Q206.51-2.50 206.48-4.84L206.48-4.84L206.48-14.22L209.93-14.22L209.93-4.78Q209.99-2.44 212.10-2.44L212.10-2.44Q213.16-2.44 213.71-3.03Q214.26-3.61 214.26-4.93L214.26-4.93L214.26-14.22ZM224.50 0L219.82 0L219.82-14.22L224.40-14.22Q226.29-14.22 227.79-13.36Q229.30-12.51 230.14-10.95Q230.99-9.39 231.00-7.46L231.00-7.46L231.00-6.81Q231.00-4.85 230.17-3.31Q229.35-1.76 227.85-0.88Q226.35-0.01 224.50 0L224.50 0ZM224.40-11.57L223.25-11.57L223.25-2.64L224.44-2.64Q225.92-2.64 226.71-3.69Q227.50-4.74 227.50-6.81L227.50-6.81L227.50-7.42Q227.50-9.48 226.71-10.53Q225.92-11.57 224.40-11.57L224.40-11.57ZM236.41-14.22L236.41 0L232.99 0L232.99-14.22L236.41-14.22ZM250.83-7.47L250.83-6.82Q250.83-4.74 250.06-3.13Q249.29-1.53 247.87-0.67Q246.45 0.20 244.63 0.20Q242.81 0.20 241.41-0.64Q240-1.47 239.21-3.03Q238.43-4.58 238.39-6.59L238.39-6.59L238.39-7.39Q238.39-9.48 239.16-11.08Q239.92-12.68 241.35-13.54Q242.78-14.41 244.61-14.41L244.61-14.41Q246.42-14.41 247.83-13.55Q249.25-12.70 250.03-11.11Q250.82-9.52 250.83-7.47L250.83-7.47ZM247.34-6.76L247.34-7.41Q247.34-9.53 246.64-10.63Q245.93-11.73 244.61-11.73L244.61-11.73Q242.03-11.73 241.88-7.86L241.88-7.86L241.88-6.82Q241.88-4.73 242.57-3.60Q243.26-2.48 244.63-2.48L244.63-2.48Q245.93-2.48 246.63-3.58Q247.33-4.69 247.34-6.76L247.34-6.76Z"></path></g></g></svg>